Patient4_TMGait_0pt7_01_left_20_EMG.mot
version=1
nRows=13
nColumns=33
inDegrees=no
endheader
time	1LAddLong	2LGlutMax	3LGlutMed	4LIliopsoas	5LSemiMemb	6LBicFemLong	7LRecFem	8LVastMed	9LVastLat	10LGasMed	11LTibAnt	12lTibPost	13LPeroneusLong	14LSol	15LExtDigLong	16LFlexDigLong	17RAddLong	18RGlutMax	19RGlutMed	20RIliopsoas	21RSemiMemb	22RBicFemLong	23RRecFem	24RVastMed	25RVastLat	26RGasMed	27RTibAnt	28RTibPost	29RPeroneusLong	30RSol	31RExtDigLong	32RFlexDigLong
24.16	0.015869	-0.01236	-0.043945	0.033264	-0.036469	-0.080109	-0.10803	-0.015259	0.062561	0.00946	-0.022583	-0.001984	0.008545	-0.19943	-0.044556	0.000458	0.005798	-0.21408	0.031433	-0.09079	0.017242	0.083923	-0.2005	0.000916	-0.030212	-0.023499	-0.23972	-0.009308	0.045319	-0.061798	-0.002594	-0.009003
24.161	-0.005188	-0.033417	-0.03418	0.027618	0.07843	-0.059967	-0.10834	-0.007782	0.058746	-0.014648	0.010681	0.010986	-0.017242	-0.21729	-0.054779	-0.009003	0.013275	-0.32074	-0.1387	-0.036621	0.00824	0.004425	-0.2742	-0.035095	-0.2478	0.005035	-0.96405	-0.009003	1.6965	-0.168	-0.003357	-0.008545
24.162	0.00885	-0.016479	-0.005188	0.014038	0.077057	-0.019684	-0.097961	-0.009003	0.056763	-0.012054	-0.02121	0.011597	-0.006866	-0.16785	-0.065155	-0.007019	0.018921	-0.3244	-0.11246	-0.047607	-0.028381	-0.007629	-0.099945	-0.054932	-0.42648	0.00885	-0.92743	-0.003967	0.91965	-0.28442	-0.002289	0.00061
24.163	0.012817	-0.003815	-0.02243	0.011902	0.064087	0.024567	-0.10422	-0.001831	0.053864	-0.03418	-0.047302	0.005493	0.038757	-0.066986	-0.075531	-0.006866	0.01709	-0.32318	0.14618	-0.06485	-0.041199	0.000305	-0.011139	-0.029602	-0.26611	0.008087	-0.028381	0.002441	-0.13626	-0.26566	0.000153	0.001221
24.164	0.01236	-0.01709	-0.044708	0.001068	-0.000153	0.06134	-0.11566	-0.007935	0.045471	-0.020447	-0.053253	0.0383	0.045319	-0.034332	-0.021057	-0.001526	0.025482	-0.33997	0.21133	-0.036469	-0.023499	0.003662	0.006104	0.049438	-0.10864	0.007324	0.30167	0.002594	0.08667	-0.19867	-0.002289	-0.000763
24.165	0.00885	-0.0383	0.00824	-0.009766	-0.022888	0.072327	-0.12466	-0.013885	0.043488	-0.024872	0.003204	-0.003662	0.048523	0.06958	0.023193	0.011597	0.034332	-0.29327	0.056763	-0.027008	-0.007172	0.011749	0.026093	0.059509	0.049744	0.008698	0.78201	-0.002289	-0.027008	-0.18051	0.004883	0.000153
24.166	0.003967	-0.049438	-0.041046	-0.006866	-0.048676	0.057526	-0.12604	-0.009613	0.055695	-0.010681	0.046387	0.009155	0.042114	0.057831	0.071869	-0.005493	0.024567	-0.28656	-0.072632	-0.12253	-0.016327	0.022888	0.028687	-0.020599	0.019836	-0.007782	1.0832	0.00061	-0.10162	-0.13641	-0.000305	0.004883
24.167	0.003967	-0.049591	0.046082	-0.007935	-0.096283	-0.014343	-0.13534	-0.013428	0.053101	-0.007629	0.02655	0.017395	0.02655	-0.003815	0.088806	0.001984	0.002747	-0.31845	0.022125	-0.22858	-0.058136	0.049591	-0.088348	-0.081024	0.016937	-0.018463	1.0411	-0.001984	-0.54489	-0.086823	-0.000763	-0.001984
24.168	0.008392	-0.052338	0.052185	0.007324	0.037994	-0.018311	-0.1294	-0.007477	0.040741	-0.016785	0.011902	0.00885	0.04425	-0.023041	0.076599	-0.004578	-0.011597	-0.30136	0.18967	-0.24277	-0.019531	0.070496	-0.18356	0.01358	0.058136	-0.014038	-0.031281	0.000153	-0.23605	0.009003	-0.000916	-0.007477
24.169	0.005798	-0.039978	0.03952	0.001526	0.097961	0.041809	-0.13916	-0.011597	0.039368	-0.030823	0.006714	0.011749	0.026703	-0.007019	0.03952	0.002289	0.006409	-0.31708	0.38193	-0.25024	0.075378	0.027771	-0.01709	0.080261	0.030823	-0.016632	-0.77957	-0.003052	-0.46768	0.029144	-0.001526	-0.001526
24.17	0.010223	-0.065002	0.033569	-0.005646	0.014954	0.027924	-0.13901	0.000916	0.044556	-0.037231	0.013275	0.009155	0.027161	-0.034637	0.025635	0.007477	0.021362	-0.30304	-0.12558	-0.11627	0.055237	0.040741	0.041046	0.015564	-0.035706	-0.011749	-0.73273	-0.002136	-0.43808	0.16998	-0.000916	-0.00351
24.171	0.011292	-0.079193	-0.016937	0.00473	-0.040436	-0.039673	-0.12894	-0.013885	0.04715	-0.032806	0.0177	0.010834	0.00473	-0.11688	0.003357	0.000305	0.010681	-0.23987	-0.327	0.074768	-0.039978	0.063629	0.00885	0.010529	-0.011749	-0.013733	-0.54108	-0.000916	-0.14572	0.23178	-0.001068	-0.012817
24.172	0.009308	-0.086365	-0.046539	-0.006256	-0.031433	0.029297	-0.13199	-0.00946	0.048065	-0.039978	0.005341	0.004883	0.042114	-0.1178	-0.02121	-0.000458	-0.006256	-0.26184	0.01358	0.34378	-0.20264	0.088654	0.10864	-0.011292	-0.014343	-0.013275	-0.25146	-0.002441	0.15167	0.11414	0.003967	-0.016174
